<svg xmlns="http://www.w3.org/2000/svg" viewBox="6 13 446 104" width="1338" height="312">
  <defs>
    <linearGradient id="msl-bg" x1="0" y1="0" x2="1" y2="1">
      <stop offset="0%" stop-color="#212121"/>
      <stop offset="100%" stop-color="#1A1A2E"/>
    </linearGradient>
    <linearGradient id="msl-sep" x1="0" y1="0" x2="1" y2="0">
      <stop offset="0%" stop-color="#F44336"/>
      <stop offset="25%" stop-color="#2196F3"/>
      <stop offset="50%" stop-color="#4CAF50"/>
      <stop offset="75%" stop-color="#FFC107"/>
      <stop offset="100%" stop-color="#9C27B0"/>
    </linearGradient>
  </defs>
  <!-- Icon area background -->
  <rect x="8" y="15" width="100" height="100" rx="16" fill="url(#msl-bg)"/>
  <!-- Mosaic blocks large -->
  <rect x="16" y="23" width="28" height="28" rx="4" fill="#F44336"/>
  <rect x="48" y="23" width="18" height="28" rx="4" fill="#2196F3"/>
  <rect x="70" y="23" width="14" height="16" rx="3" fill="#FFC107"/>
  <rect x="70" y="43" width="14" height="15" rx="3" fill="#9C27B0"/>
  <rect x="16" y="55" width="18" height="18" rx="4" fill="#4CAF50"/>
  <rect x="38" y="55" width="28" height="18" rx="4" fill="#FFC107"/>
  <rect x="70" y="62" width="14" height="18" rx="3" fill="#F44336"/>
  <rect x="16" y="77" width="14" height="14" rx="3" fill="#9C27B0"/>
  <rect x="34" y="77" width="19" height="14" rx="3" fill="#2196F3"/>
  <rect x="57" y="83" width="27" height="10" rx="3" fill="#4CAF50"/>
  <!-- Company name large with alternating colors -->
  <text x="130" y="52" font-family="'Segoe UI',system-ui,sans-serif" font-size="36" font-weight="700" letter-spacing="1.5">
    <tspan fill="#F44336">M</tspan><tspan fill="#2196F3">o</tspan><tspan fill="#4CAF50">s</tspan><tspan fill="#FFC107">a</tspan><tspan fill="#9C27B0">i</tspan><tspan fill="#F44336">c</tspan>
    <tspan fill="#2196F3" dx="8">L</tspan><tspan fill="#4CAF50">a</tspan><tspan fill="#FFC107">b</tspan><tspan fill="#9C27B0">s</tspan>
  </text>
  <!-- Subtitle -->
  <text x="130" y="72" font-family="'Segoe UI',system-ui,sans-serif" font-size="13" fill="#B0BEC5" letter-spacing="3" font-weight="300">
    BUILDING BLOCKS OF SCIENCE
  </text>
  <!-- Multicolor separator -->
  <rect x="130" y="82" width="220" height="2.5" rx="1.25" fill="url(#msl-sep)"/>
  <!-- Tagline -->
  <text x="130" y="102" font-family="'Segoe UI',system-ui,sans-serif" font-size="12" fill="#78909C" letter-spacing="0.5">
    Research · Innovation · Technology Transfer
  </text>
</svg>